<svg width="27" height="25" viewBox="0 0 27 25" fill="none" xmlns="http://www.w3.org/2000/svg">
<path d="M26.2768 23.4375H25.0714V1.17188C25.0714 0.524658 24.4239 0 23.625 0H3.375C2.57615 0 1.92857 0.524658 1.92857 1.17188V23.4375H0.723214C0.323819 23.4375 0 23.6999 0 24.0234V25H27V24.0234C27 23.6999 26.6762 23.4375 26.2768 23.4375ZM7.71429 3.71094C7.71429 3.38735 8.03811 3.125 8.4375 3.125H10.8482C11.2476 3.125 11.5714 3.38735 11.5714 3.71094V5.66406C11.5714 5.98765 11.2476 6.25 10.8482 6.25H8.4375C8.03811 6.25 7.71429 5.98765 7.71429 5.66406V3.71094ZM7.71429 8.39844C7.71429 8.07485 8.03811 7.8125 8.4375 7.8125H10.8482C11.2476 7.8125 11.5714 8.07485 11.5714 8.39844V10.3516C11.5714 10.6751 11.2476 10.9375 10.8482 10.9375H8.4375C8.03811 10.9375 7.71429 10.6751 7.71429 10.3516V8.39844ZM10.8482 15.625H8.4375C8.03811 15.625 7.71429 15.3626 7.71429 15.0391V13.0859C7.71429 12.7624 8.03811 12.5 8.4375 12.5H10.8482C11.2476 12.5 11.5714 12.7624 11.5714 13.0859V15.0391C11.5714 15.3626 11.2476 15.625 10.8482 15.625ZM15.4286 23.4375H11.5714V19.3359C11.5714 19.0124 11.8952 18.75 12.2946 18.75H14.7054C15.1048 18.75 15.4286 19.0124 15.4286 19.3359V23.4375ZM19.2857 15.0391C19.2857 15.3626 18.9619 15.625 18.5625 15.625H16.1518C15.7524 15.625 15.4286 15.3626 15.4286 15.0391V13.0859C15.4286 12.7624 15.7524 12.5 16.1518 12.5H18.5625C18.9619 12.5 19.2857 12.7624 19.2857 13.0859V15.0391ZM19.2857 10.3516C19.2857 10.6751 18.9619 10.9375 18.5625 10.9375H16.1518C15.7524 10.9375 15.4286 10.6751 15.4286 10.3516V8.39844C15.4286 8.07485 15.7524 7.8125 16.1518 7.8125H18.5625C18.9619 7.8125 19.2857 8.07485 19.2857 8.39844V10.3516ZM19.2857 5.66406C19.2857 5.98765 18.9619 6.25 18.5625 6.25H16.1518C15.7524 6.25 15.4286 5.98765 15.4286 5.66406V3.71094C15.4286 3.38735 15.7524 3.125 16.1518 3.125H18.5625C18.9619 3.125 19.2857 3.38735 19.2857 3.71094V5.66406Z" fill="#FF6884"/>
</svg>
