<svg width="375" height="207" viewBox="0 0 375 207" fill="none" xmlns="http://www.w3.org/2000/svg">
<path d="M82.1056 26.6159L10.7568 18H-16.0458C-29.6675 18 -40.5584 29.324 -40.0275 42.9353L-33.1543 219.164C-32.6634 231.748 -22.5292 241.813 -9.94189 242.217L424.343 256.146C438.575 256.603 450.073 244.639 449.051 230.436L438.849 88.6592C437.489 69.7591 415.791 59.8155 400.587 71.1251L383.951 83.5L328.839 123.431C324.317 126.707 318.794 128.304 313.221 127.947L246.921 123.694C229.433 122.572 212.25 118.567 196.068 111.841L135.026 86.4661C130.386 84.5374 126.469 81.2013 123.826 76.928L99.6403 37.8194C95.8024 31.6135 89.3497 27.4906 82.1056 26.6159Z" fill="url(#paint0_linear_601_576)" fill-opacity="0.3"/>
<path d="M88.6433 9.61587L17.2945 1H-9.50806C-23.1297 1 -34.0207 12.324 -33.4898 25.9353L-26.6165 202.164C-26.1257 214.748 -15.9915 224.813 -3.40419 225.217L430.881 239.146C445.113 239.603 456.611 227.639 455.589 213.436L445.387 71.6592C444.027 52.7591 422.328 42.8155 407.124 54.1251L390.488 66.5L335.376 106.431C330.854 109.707 325.331 111.304 319.759 110.947L253.459 106.694C235.971 105.572 218.788 101.567 202.606 94.8405L141.564 69.4661C136.924 67.5374 133.007 64.2013 130.364 59.928L106.178 20.8194C102.34 14.6135 95.8874 10.4906 88.6433 9.61587Z" fill="url(#paint1_linear_601_576)" fill-opacity="0.3"/>
<path d="M82.1056 26.6159L10.7568 18H-16.0458C-29.6675 18 -40.5584 29.324 -40.0275 42.9353L-33.1543 219.164C-32.6634 231.748 -22.5292 241.813 -9.94189 242.217L424.343 256.146C438.575 256.603 450.073 244.639 449.051 230.436L438.849 88.6592C437.489 69.7591 415.791 59.8155 400.587 71.1251L383.951 83.5L328.839 123.431C324.317 126.707 318.794 128.304 313.221 127.947L246.921 123.694C229.433 122.572 212.25 118.567 196.068 111.841L135.026 86.4661C130.386 84.5374 126.469 81.2013 123.826 76.928L99.6403 37.8194C95.8024 31.6135 89.3497 27.4906 82.1056 26.6159Z" stroke="#C8A5EF"/>
<path d="M88.6433 9.61587L17.2945 1H-9.50806C-23.1297 1 -34.0207 12.324 -33.4898 25.9353L-26.6165 202.164C-26.1257 214.748 -15.9915 224.813 -3.40419 225.217L430.881 239.146C445.113 239.603 456.611 227.639 455.589 213.436L445.387 71.6592C444.027 52.7591 422.328 42.8155 407.124 54.1251L390.488 66.5L335.376 106.431C330.854 109.707 325.331 111.304 319.759 110.947L253.459 106.694C235.971 105.572 218.788 101.567 202.606 94.8405L141.564 69.4661C136.924 67.5374 133.007 64.2013 130.364 59.928L106.178 20.8194C102.34 14.6135 95.8874 10.4906 88.6433 9.61587Z" stroke="#C8A5EF"/>
<defs>
<linearGradient id="paint0_linear_601_576" x1="207.803" y1="1" x2="207.803" y2="256.159" gradientUnits="userSpaceOnUse">
<stop offset="0.378209" stop-color="#934EE0"/>
<stop offset="0.708766" stop-color="#E8129F"/>
</linearGradient>
<linearGradient id="paint1_linear_601_576" x1="211.519" y1="1" x2="211.519" y2="240" gradientUnits="userSpaceOnUse">
<stop offset="0.378209" stop-color="#934EE0" stop-opacity="0.14"/>
<stop offset="0.708766" stop-color="#E8129F"/>
</linearGradient>
</defs>
</svg>
